<?xml version="1.0" encoding="UTF-8" standalone="no"?>
<!DOCTYPE svg PUBLIC "-//W3C//DTD SVG 1.1//EN"
 "http://www.w3.org/Graphics/SVG/1.1/DTD/svg11.dtd">
<!-- Generated by graphviz version 12.2.1 (20241206.2353)
 -->
<!-- Pages: 1 -->
<svg width="716pt" height="188pt"
 viewBox="0.00 0.00 716.25 188.00" xmlns="http://www.w3.org/2000/svg" xmlns:xlink="http://www.w3.org/1999/xlink">
<g id="graph0" class="graph" transform="scale(1 1) rotate(0) translate(4 184)">
<polygon fill="white" stroke="none" points="-4,4 -4,-184 712.25,-184 712.25,4 -4,4"/>
<!-- 0 -->
<g id="node1" class="node">
<title>0</title>
<polygon fill="none" stroke="black" points="288,-180 204.5,-180 204.5,-144 288,-144 288,-180"/>
<text text-anchor="middle" x="246.25" y="-156.95" font-family="Times,serif" font-size="14.00">coldvox&#45;app</text>
</g>
<!-- 1 -->
<g id="node2" class="node">
<title>1</title>
<polygon fill="none" stroke="black" points="180.25,-108 86.25,-108 86.25,-72 180.25,-72 180.25,-108"/>
<text text-anchor="middle" x="133.25" y="-84.95" font-family="Times,serif" font-size="14.00">coldvox&#45;audio</text>
</g>
<!-- 0&#45;&gt;1 -->
<g id="edge1" class="edge">
<title>0&#45;&gt;1</title>
<path fill="none" stroke="black" d="M218.03,-143.52C203.76,-134.68 186.26,-123.84 170.87,-114.3"/>
<polygon fill="black" stroke="black" points="172.74,-111.35 162.4,-109.06 169.06,-117.3 172.74,-111.35"/>
</g>
<!-- 2 -->
<g id="node3" class="node">
<title>2</title>
<polygon fill="none" stroke="black" points="122.5,-36 0,-36 0,0 122.5,0 122.5,-36"/>
<text text-anchor="middle" x="61.25" y="-12.95" font-family="Times,serif" font-size="14.00">coldvox&#45;foundation</text>
</g>
<!-- 0&#45;&gt;2 -->
<g id="edge2" class="edge">
<title>0&#45;&gt;2</title>
<path fill="none" stroke="black" d="M204.3,-159.6C165.5,-155.95 109.17,-144.22 77.25,-108 62.88,-91.69 59.37,-66.99 59.18,-47.74"/>
<polygon fill="black" stroke="black" points="62.68,-47.89 59.41,-37.82 55.68,-47.74 62.68,-47.89"/>
</g>
<!-- 3 -->
<g id="node4" class="node">
<title>3</title>
<polygon fill="none" stroke="black" points="262.12,-36 146.38,-36 146.38,0 262.12,0 262.12,-36"/>
<text text-anchor="middle" x="204.25" y="-12.95" font-family="Times,serif" font-size="14.00">coldvox&#45;telemetry</text>
</g>
<!-- 0&#45;&gt;3 -->
<g id="edge5" class="edge">
<title>0&#45;&gt;3</title>
<path fill="none" stroke="black" d="M241.1,-143.59C233.98,-119.5 221.04,-75.75 212.54,-47.03"/>
<polygon fill="black" stroke="black" points="215.93,-46.16 209.74,-37.56 209.22,-48.14 215.93,-46.16"/>
</g>
<!-- 5 -->
<g id="node6" class="node">
<title>5</title>
<polygon fill="none" stroke="black" points="365.62,-36 288.88,-36 288.88,0 365.62,0 365.62,-36"/>
<text text-anchor="middle" x="327.25" y="-12.95" font-family="Times,serif" font-size="14.00">coldvox&#45;stt</text>
</g>
<!-- 0&#45;&gt;5 -->
<g id="edge3" class="edge">
<title>0&#45;&gt;5</title>
<path fill="none" stroke="black" d="M246.69,-143.75C247.88,-124.9 251.92,-94.4 265.25,-72 271.74,-61.1 281.28,-51.34 290.94,-43.25"/>
<polygon fill="black" stroke="black" points="292.87,-46.18 298.57,-37.25 288.55,-40.68 292.87,-46.18"/>
</g>
<!-- 6 -->
<g id="node7" class="node">
<title>6</title>
<polygon fill="none" stroke="black" points="380.62,-108 273.88,-108 273.88,-72 380.62,-72 380.62,-108"/>
<text text-anchor="middle" x="327.25" y="-84.95" font-family="Times,serif" font-size="14.00">coldvox&#45;stt&#45;vosk</text>
</g>
<!-- 0&#45;&gt;6 -->
<g id="edge4" class="edge">
<title>0&#45;&gt;6</title>
<path fill="none" stroke="black" stroke-dasharray="1,5" d="M266.27,-143.7C276.01,-135.28 287.89,-125.02 298.56,-115.79"/>
<polygon fill="black" stroke="black" points="300.75,-118.52 306.03,-109.34 296.18,-113.23 300.75,-118.52"/>
</g>
<!-- 7 -->
<g id="node8" class="node">
<title>7</title>
<polygon fill="none" stroke="black" points="647,-36 563.5,-36 563.5,0 647,0 647,-36"/>
<text text-anchor="middle" x="605.25" y="-12.95" font-family="Times,serif" font-size="14.00">coldvox&#45;vad</text>
</g>
<!-- 0&#45;&gt;7 -->
<g id="edge6" class="edge">
<title>0&#45;&gt;7</title>
<path fill="none" stroke="black" d="M288.37,-146.07C291.02,-145.32 293.66,-144.62 296.25,-144 404.11,-118.04 448.88,-166.32 543.25,-108 566.47,-93.65 583.27,-67.02 593.48,-46.61"/>
<polygon fill="black" stroke="black" points="596.59,-48.23 597.7,-37.69 590.26,-45.24 596.59,-48.23"/>
</g>
<!-- 8 -->
<g id="node9" class="node">
<title>8</title>
<polygon fill="none" stroke="black" points="708.25,-108 590.25,-108 590.25,-72 708.25,-72 708.25,-108"/>
<text text-anchor="middle" x="649.25" y="-84.95" font-family="Times,serif" font-size="14.00">coldvox&#45;vad&#45;silero</text>
</g>
<!-- 0&#45;&gt;8 -->
<g id="edge7" class="edge">
<title>0&#45;&gt;8</title>
<path fill="none" stroke="black" d="M288.36,-146.02C291.01,-145.28 293.66,-144.6 296.25,-144 418.48,-115.66 452.77,-130.26 576.25,-108 577.09,-107.85 577.94,-107.69 578.79,-107.54"/>
<polygon fill="black" stroke="black" points="579.37,-110.99 588.51,-105.62 578.02,-104.12 579.37,-110.99"/>
</g>
<!-- 1&#45;&gt;2 -->
<g id="edge8" class="edge">
<title>1&#45;&gt;2</title>
<path fill="none" stroke="black" d="M115.45,-71.7C106.97,-63.45 96.66,-53.43 87.32,-44.35"/>
<polygon fill="black" stroke="black" points="89.79,-41.86 80.18,-37.4 84.91,-46.88 89.79,-41.86"/>
</g>
<!-- 1&#45;&gt;3 -->
<g id="edge9" class="edge">
<title>1&#45;&gt;3</title>
<path fill="none" stroke="black" d="M150.8,-71.7C159.23,-63.39 169.48,-53.28 178.75,-44.14"/>
<polygon fill="black" stroke="black" points="181.16,-46.68 185.82,-37.17 176.25,-41.7 181.16,-46.68"/>
</g>
<!-- 4 -->
<g id="node5" class="node">
<title>4</title>
<polygon fill="none" stroke="black" points="534.25,-108 398.25,-108 398.25,-72 534.25,-72 534.25,-108"/>
<text text-anchor="middle" x="466.25" y="-84.95" font-family="Times,serif" font-size="14.00">coldvox&#45;text&#45;injection</text>
</g>
<!-- 4&#45;&gt;5 -->
<g id="edge10" class="edge">
<title>4&#45;&gt;5</title>
<path fill="none" stroke="black" d="M431.53,-71.52C413.4,-62.39 391.02,-51.11 371.64,-41.35"/>
<polygon fill="black" stroke="black" points="373.38,-38.31 362.88,-36.94 370.23,-44.57 373.38,-38.31"/>
</g>
<!-- 6&#45;&gt;5 -->
<g id="edge11" class="edge">
<title>6&#45;&gt;5</title>
<path fill="none" stroke="black" d="M327.25,-71.7C327.25,-64.41 327.25,-55.73 327.25,-47.54"/>
<polygon fill="black" stroke="black" points="330.75,-47.62 327.25,-37.62 323.75,-47.62 330.75,-47.62"/>
</g>
<!-- 8&#45;&gt;7 -->
<g id="edge12" class="edge">
<title>8&#45;&gt;7</title>
<path fill="none" stroke="black" d="M638.37,-71.7C633.47,-63.9 627.57,-54.51 622.11,-45.83"/>
<polygon fill="black" stroke="black" points="625.09,-43.99 616.81,-37.39 619.17,-47.71 625.09,-43.99"/>
</g>
<!-- 9 -->
<g id="node10" class="node">
<title>9</title>
<polygon fill="none" stroke="black" points="386.88,-180 305.62,-180 305.62,-144 386.88,-144 386.88,-180"/>
<text text-anchor="middle" x="346.25" y="-156.95" font-family="Times,serif" font-size="14.00">coldvox&#45;gui</text>
</g>
</g>
</svg>
