<?xml version="1.0" encoding="UTF-8" standalone="no"?>
<!DOCTYPE svg PUBLIC "-//W3C//DTD SVG 1.1//EN"
 "http://www.w3.org/Graphics/SVG/1.1/DTD/svg11.dtd">
<!-- Generated by graphviz version 12.2.1 (20241206.2353)
 -->
<!-- Pages: 1 -->
<svg width="698pt" height="188pt"
 viewBox="0.00 0.00 697.88 188.00" xmlns="http://www.w3.org/2000/svg" xmlns:xlink="http://www.w3.org/1999/xlink">
<g id="graph0" class="graph" transform="scale(1 1) rotate(0) translate(4 184)">
<polygon fill="white" stroke="none" points="-4,4 -4,-184 693.88,-184 693.88,4 -4,4"/>
<!-- 0 -->
<g id="node1" class="node">
<title>0</title>
<polygon fill="none" stroke="black" points="266,-180 182.5,-180 182.5,-144 266,-144 266,-180"/>
<text text-anchor="middle" x="224.25" y="-156.95" font-family="Times,serif" font-size="14.00">coldvox&#45;app</text>
</g>
<!-- 1 -->
<g id="node2" class="node">
<title>1</title>
<polygon fill="none" stroke="black" points="177.25,-108 83.25,-108 83.25,-72 177.25,-72 177.25,-108"/>
<text text-anchor="middle" x="130.25" y="-84.95" font-family="Times,serif" font-size="14.00">coldvox&#45;audio</text>
</g>
<!-- 0&#45;&gt;1 -->
<g id="edge1" class="edge">
<title>0&#45;&gt;1</title>
<path fill="none" stroke="black" d="M201.01,-143.7C189.38,-135.03 175.1,-124.4 162.43,-114.96"/>
<polygon fill="black" stroke="black" points="164.87,-112.42 154.76,-109.25 160.69,-118.03 164.87,-112.42"/>
</g>
<!-- 2 -->
<g id="node3" class="node">
<title>2</title>
<polygon fill="none" stroke="black" points="122.5,-36 0,-36 0,0 122.5,0 122.5,-36"/>
<text text-anchor="middle" x="61.25" y="-12.95" font-family="Times,serif" font-size="14.00">coldvox&#45;foundation</text>
</g>
<!-- 0&#45;&gt;2 -->
<g id="edge2" class="edge">
<title>0&#45;&gt;2</title>
<path fill="none" stroke="black" d="M182.27,-157.77C147.85,-152.78 100.65,-140.11 74.25,-108 60.6,-91.4 57.87,-66.92 58.26,-47.83"/>
<polygon fill="black" stroke="black" points="61.75,-48.17 58.79,-38 54.76,-47.8 61.75,-48.17"/>
</g>
<!-- 3 -->
<g id="node4" class="node">
<title>3</title>
<polygon fill="none" stroke="black" points="259.12,-36 143.38,-36 143.38,0 259.12,0 259.12,-36"/>
<text text-anchor="middle" x="201.25" y="-12.95" font-family="Times,serif" font-size="14.00">coldvox&#45;telemetry</text>
</g>
<!-- 0&#45;&gt;3 -->
<g id="edge4" class="edge">
<title>0&#45;&gt;3</title>
<path fill="none" stroke="black" d="M221.43,-143.59C217.55,-119.61 210.51,-76.14 205.85,-47.42"/>
<polygon fill="black" stroke="black" points="209.32,-46.92 204.26,-37.6 202.41,-48.04 209.32,-46.92"/>
</g>
<!-- 5 -->
<g id="node6" class="node">
<title>5</title>
<polygon fill="none" stroke="black" points="483.62,-108 406.88,-108 406.88,-72 483.62,-72 483.62,-108"/>
<text text-anchor="middle" x="445.25" y="-84.95" font-family="Times,serif" font-size="14.00">coldvox&#45;stt</text>
</g>
<!-- 0&#45;&gt;5 -->
<g id="edge3" class="edge">
<title>0&#45;&gt;5</title>
<path fill="none" stroke="black" d="M266.28,-148.86C299.22,-139.19 346.45,-125.02 395.71,-108.77"/>
<polygon fill="black" stroke="black" points="396.75,-112.11 405.14,-105.64 394.55,-105.47 396.75,-112.11"/>
</g>
<!-- 7 -->
<g id="node8" class="node">
<title>7</title>
<polygon fill="none" stroke="black" points="366,-36 282.5,-36 282.5,0 366,0 366,-36"/>
<text text-anchor="middle" x="324.25" y="-12.95" font-family="Times,serif" font-size="14.00">coldvox&#45;vad</text>
</g>
<!-- 0&#45;&gt;7 -->
<g id="edge5" class="edge">
<title>0&#45;&gt;7</title>
<path fill="none" stroke="black" d="M229.02,-143.73C234.8,-124.86 245.84,-94.34 262.25,-72 269.95,-61.51 280.11,-51.73 289.97,-43.49"/>
<polygon fill="black" stroke="black" points="292.05,-46.31 297.68,-37.33 287.69,-40.84 292.05,-46.31"/>
</g>
<!-- 8 -->
<g id="node9" class="node">
<title>8</title>
<polygon fill="none" stroke="black" points="389.25,-108 271.25,-108 271.25,-72 389.25,-72 389.25,-108"/>
<text text-anchor="middle" x="330.25" y="-84.95" font-family="Times,serif" font-size="14.00">coldvox&#45;vad&#45;silero</text>
</g>
<!-- 0&#45;&gt;8 -->
<g id="edge6" class="edge">
<title>0&#45;&gt;8</title>
<path fill="none" stroke="black" d="M250.72,-143.52C263.98,-134.76 280.21,-124.04 294.55,-114.58"/>
<polygon fill="black" stroke="black" points="296.43,-117.53 302.85,-109.09 292.58,-111.68 296.43,-117.53"/>
</g>
<!-- 1&#45;&gt;2 -->
<g id="edge7" class="edge">
<title>1&#45;&gt;2</title>
<path fill="none" stroke="black" d="M113.19,-71.7C105.01,-63.39 95.04,-53.28 86.03,-44.14"/>
<polygon fill="black" stroke="black" points="88.69,-41.85 79.17,-37.18 83.7,-46.76 88.69,-41.85"/>
</g>
<!-- 1&#45;&gt;3 -->
<g id="edge8" class="edge">
<title>1&#45;&gt;3</title>
<path fill="none" stroke="black" d="M147.8,-71.7C156.23,-63.39 166.48,-53.28 175.75,-44.14"/>
<polygon fill="black" stroke="black" points="178.16,-46.68 182.82,-37.17 173.25,-41.7 178.16,-46.68"/>
</g>
<!-- 4 -->
<g id="node5" class="node">
<title>4</title>
<polygon fill="none" stroke="black" points="466.25,-180 330.25,-180 330.25,-144 466.25,-144 466.25,-180"/>
<text text-anchor="middle" x="398.25" y="-156.95" font-family="Times,serif" font-size="14.00">coldvox&#45;text&#45;injection</text>
</g>
<!-- 4&#45;&gt;5 -->
<g id="edge9" class="edge">
<title>4&#45;&gt;5</title>
<path fill="none" stroke="black" d="M409.87,-143.7C415.16,-135.81 421.55,-126.3 427.43,-117.55"/>
<polygon fill="black" stroke="black" points="430.25,-119.61 432.92,-109.36 424.44,-115.71 430.25,-119.61"/>
</g>
<!-- 6 -->
<g id="node7" class="node">
<title>6</title>
<polygon fill="none" stroke="black" points="590.62,-180 483.88,-180 483.88,-144 590.62,-144 590.62,-180"/>
<text text-anchor="middle" x="537.25" y="-156.95" font-family="Times,serif" font-size="14.00">coldvox&#45;stt&#45;vosk</text>
</g>
<!-- 6&#45;&gt;5 -->
<g id="edge10" class="edge">
<title>6&#45;&gt;5</title>
<path fill="none" stroke="black" d="M514.51,-143.7C503.23,-135.11 489.42,-124.61 477.11,-115.24"/>
<polygon fill="black" stroke="black" points="479.33,-112.53 469.25,-109.26 475.09,-118.1 479.33,-112.53"/>
</g>
<!-- 8&#45;&gt;7 -->
<g id="edge11" class="edge">
<title>8&#45;&gt;7</title>
<path fill="none" stroke="black" d="M328.77,-71.7C328.14,-64.41 327.4,-55.73 326.7,-47.54"/>
<polygon fill="black" stroke="black" points="330.19,-47.28 325.85,-37.61 323.21,-47.87 330.19,-47.28"/>
</g>
<!-- 9 -->
<g id="node10" class="node">
<title>9</title>
<polygon fill="none" stroke="black" points="689.88,-180 608.62,-180 608.62,-144 689.88,-144 689.88,-180"/>
<text text-anchor="middle" x="649.25" y="-156.95" font-family="Times,serif" font-size="14.00">coldvox&#45;gui</text>
</g>
</g>
</svg>
