<?xml version="1.0" encoding="UTF-8" standalone="no"?>
<!DOCTYPE svg PUBLIC "-//W3C//DTD SVG 1.1//EN"
 "http://www.w3.org/Graphics/SVG/1.1/DTD/svg11.dtd">
<!-- Generated by graphviz version 12.2.1 (20241206.2353)
 -->
<!-- Pages: 1 -->
<svg width="509pt" height="188pt"
 viewBox="0.00 0.00 509.00 188.00" xmlns="http://www.w3.org/2000/svg" xmlns:xlink="http://www.w3.org/1999/xlink">
<g id="graph0" class="graph" transform="scale(1 1) rotate(0) translate(4 184)">
<polygon fill="white" stroke="none" points="-4,4 -4,-184 505,-184 505,4 -4,4"/>
<!-- 0 -->
<g id="node1" class="node">
<title>0</title>
<polygon fill="none" stroke="black" points="320.75,-180 237.25,-180 237.25,-144 320.75,-144 320.75,-180"/>
<text text-anchor="middle" x="279" y="-156.95" font-family="Times,serif" font-size="14.00">coldvox&#45;app</text>
</g>
<!-- 1 -->
<g id="node2" class="node">
<title>1</title>
<polygon fill="none" stroke="black" points="289,-108 195,-108 195,-72 289,-72 289,-108"/>
<text text-anchor="middle" x="242" y="-84.95" font-family="Times,serif" font-size="14.00">coldvox&#45;audio</text>
</g>
<!-- 0&#45;&gt;1 -->
<g id="edge1" class="edge">
<title>0&#45;&gt;1</title>
<path fill="none" stroke="black" d="M269.85,-143.7C265.78,-135.98 260.88,-126.71 256.33,-118.11"/>
<polygon fill="black" stroke="black" points="259.52,-116.65 251.75,-109.44 253.33,-119.92 259.52,-116.65"/>
</g>
<!-- 2 -->
<g id="node3" class="node">
<title>2</title>
<polygon fill="none" stroke="black" points="184.25,-36 61.75,-36 61.75,0 184.25,0 184.25,-36"/>
<text text-anchor="middle" x="123" y="-12.95" font-family="Times,serif" font-size="14.00">coldvox&#45;foundation</text>
</g>
<!-- 0&#45;&gt;2 -->
<g id="edge2" class="edge">
<title>0&#45;&gt;2</title>
<path fill="none" stroke="black" d="M239.85,-143.54C222.21,-134.51 201.83,-122.35 186,-108 166.36,-90.19 149.35,-65.23 137.97,-46.27"/>
<polygon fill="black" stroke="black" points="141.07,-44.63 133.01,-37.75 135.02,-48.15 141.07,-44.63"/>
</g>
<!-- 3 -->
<g id="node4" class="node">
<title>3</title>
<polygon fill="none" stroke="black" points="319.88,-36 204.12,-36 204.12,0 319.88,0 319.88,-36"/>
<text text-anchor="middle" x="262" y="-12.95" font-family="Times,serif" font-size="14.00">coldvox&#45;telemetry</text>
</g>
<!-- 0&#45;&gt;3 -->
<g id="edge4" class="edge">
<title>0&#45;&gt;3</title>
<path fill="none" stroke="black" d="M287.85,-143.71C295.92,-125.61 305.52,-96.46 298,-72 295.12,-62.63 289.95,-53.42 284.42,-45.39"/>
<polygon fill="black" stroke="black" points="287.29,-43.38 278.51,-37.44 281.67,-47.56 287.29,-43.38"/>
</g>
<!-- 4 -->
<g id="node5" class="node">
<title>4</title>
<polygon fill="none" stroke="black" points="139.38,-108 62.62,-108 62.62,-72 139.38,-72 139.38,-108"/>
<text text-anchor="middle" x="101" y="-84.95" font-family="Times,serif" font-size="14.00">coldvox&#45;stt</text>
</g>
<!-- 0&#45;&gt;4 -->
<g id="edge3" class="edge">
<title>0&#45;&gt;4</title>
<path fill="none" stroke="black" d="M236.82,-144.41C210.86,-134.2 177.47,-121.07 150.3,-110.39"/>
<polygon fill="black" stroke="black" points="151.84,-107.23 141.25,-106.83 149.27,-113.74 151.84,-107.23"/>
</g>
<!-- 5 -->
<g id="node6" class="node">
<title>5</title>
<polygon fill="none" stroke="black" points="462.75,-36 379.25,-36 379.25,0 462.75,0 462.75,-36"/>
<text text-anchor="middle" x="421" y="-12.95" font-family="Times,serif" font-size="14.00">coldvox&#45;vad</text>
</g>
<!-- 0&#45;&gt;5 -->
<g id="edge5" class="edge">
<title>0&#45;&gt;5</title>
<path fill="none" stroke="black" d="M296.41,-143.59C321.35,-118.65 367.38,-72.62 395.97,-44.03"/>
<polygon fill="black" stroke="black" points="398.22,-46.73 402.82,-37.18 393.27,-41.78 398.22,-46.73"/>
</g>
<!-- 6 -->
<g id="node7" class="node">
<title>6</title>
<polygon fill="none" stroke="black" points="501,-108 383,-108 383,-72 501,-72 501,-108"/>
<text text-anchor="middle" x="442" y="-84.95" font-family="Times,serif" font-size="14.00">coldvox&#45;vad&#45;silero</text>
</g>
<!-- 0&#45;&gt;6 -->
<g id="edge6" class="edge">
<title>0&#45;&gt;6</title>
<path fill="none" stroke="black" d="M319.71,-143.52C341.38,-134.21 368.23,-122.68 391.25,-112.79"/>
<polygon fill="black" stroke="black" points="392.33,-116.14 400.13,-108.98 389.57,-109.71 392.33,-116.14"/>
</g>
<!-- 1&#45;&gt;2 -->
<g id="edge7" class="edge">
<title>1&#45;&gt;2</title>
<path fill="none" stroke="black" d="M212.28,-71.52C197.11,-62.6 178.47,-51.63 162.15,-42.03"/>
<polygon fill="black" stroke="black" points="164.04,-39.08 153.65,-37.03 160.49,-45.11 164.04,-39.08"/>
</g>
<!-- 1&#45;&gt;3 -->
<g id="edge8" class="edge">
<title>1&#45;&gt;3</title>
<path fill="none" stroke="black" d="M246.94,-71.7C249.08,-64.24 251.62,-55.32 254.01,-46.97"/>
<polygon fill="black" stroke="black" points="257.32,-48.14 256.7,-37.56 250.58,-46.21 257.32,-48.14"/>
</g>
<!-- 4&#45;&gt;2 -->
<g id="edge9" class="edge">
<title>4&#45;&gt;2</title>
<path fill="none" stroke="black" d="M106.44,-71.7C108.78,-64.24 111.58,-55.32 114.21,-46.97"/>
<polygon fill="black" stroke="black" points="117.51,-48.14 117.17,-37.55 110.83,-46.04 117.51,-48.14"/>
</g>
<!-- 6&#45;&gt;5 -->
<g id="edge10" class="edge">
<title>6&#45;&gt;5</title>
<path fill="none" stroke="black" d="M436.81,-71.7C434.57,-64.24 431.9,-55.32 429.39,-46.97"/>
<polygon fill="black" stroke="black" points="432.79,-46.13 426.57,-37.55 426.09,-48.14 432.79,-46.13"/>
</g>
<!-- 7 -->
<g id="node8" class="node">
<title>7</title>
<polygon fill="none" stroke="black" points="136,-180 0,-180 0,-144 136,-144 136,-180"/>
<text text-anchor="middle" x="68" y="-156.95" font-family="Times,serif" font-size="14.00">coldvox&#45;text&#45;injection</text>
</g>
<!-- 7&#45;&gt;2 -->
<g id="edge11" class="edge">
<title>7&#45;&gt;2</title>
<path fill="none" stroke="black" d="M59.48,-143.69C51.6,-125.06 42.66,-95.01 54,-72 59.73,-60.37 69.38,-50.58 79.67,-42.7"/>
<polygon fill="black" stroke="black" points="81.4,-45.76 87.56,-37.14 77.37,-40.04 81.4,-45.76"/>
</g>
<!-- 7&#45;&gt;4 -->
<g id="edge12" class="edge">
<title>7&#45;&gt;4</title>
<path fill="none" stroke="black" d="M76.16,-143.7C79.75,-136.07 84.07,-126.92 88.08,-118.4"/>
<polygon fill="black" stroke="black" points="91.19,-120.01 92.29,-109.47 84.86,-117.03 91.19,-120.01"/>
</g>
<!-- 8 -->
<g id="node9" class="node">
<title>8</title>
<polygon fill="none" stroke="black" points="419.62,-180 338.38,-180 338.38,-144 419.62,-144 419.62,-180"/>
<text text-anchor="middle" x="379" y="-156.95" font-family="Times,serif" font-size="14.00">coldvox&#45;gui</text>
</g>
</g>
</svg>
