<?xml version="1.0" encoding="UTF-8" standalone="no"?>
<!DOCTYPE svg PUBLIC "-//W3C//DTD SVG 1.1//EN"
 "http://www.w3.org/Graphics/SVG/1.1/DTD/svg11.dtd">
<!-- Generated by graphviz version 2.43.0 (0)
 -->
<!-- Title: %3 Pages: 1 -->
<svg width="838pt" height="188pt"
 viewBox="0.00 0.00 837.50 188.00" xmlns="http://www.w3.org/2000/svg" xmlns:xlink="http://www.w3.org/1999/xlink">
<g id="graph0" class="graph" transform="scale(1 1) rotate(0) translate(4 184)">
<title>%3</title>
<polygon fill="white" stroke="transparent" points="-4,4 -4,-184 833.5,-184 833.5,4 -4,4"/>
<!-- 0 -->
<g id="node1" class="node">
<title>0</title>
<polygon fill="none" stroke="black" points="334,-180 233,-180 233,-144 334,-144 334,-180"/>
<text text-anchor="middle" x="283.5" y="-158.3" font-family="Times,serif" font-size="14.00">coldvox&#45;app</text>
</g>
<!-- 1 -->
<g id="node2" class="node">
<title>1</title>
<polygon fill="none" stroke="black" points="217,-108 104,-108 104,-72 217,-72 217,-108"/>
<text text-anchor="middle" x="160.5" y="-86.3" font-family="Times,serif" font-size="14.00">coldvox&#45;audio</text>
</g>
<!-- 0&#45;&gt;1 -->
<g id="edge1" class="edge">
<title>0&#45;&gt;1</title>
<path fill="none" stroke="black" d="M253.41,-143.88C237.18,-134.64 216.96,-123.13 199.53,-113.21"/>
<polygon fill="black" stroke="black" points="201.13,-110.09 190.7,-108.19 197.66,-116.18 201.13,-110.09"/>
</g>
<!-- 2 -->
<g id="node3" class="node">
<title>2</title>
<polygon fill="none" stroke="black" points="151,-36 0,-36 0,0 151,0 151,-36"/>
<text text-anchor="middle" x="75.5" y="-14.3" font-family="Times,serif" font-size="14.00">coldvox&#45;foundation</text>
</g>
<!-- 0&#45;&gt;2 -->
<g id="edge2" class="edge">
<title>0&#45;&gt;2</title>
<path fill="none" stroke="black" d="M232.82,-160.56C189.94,-157.37 129.95,-145.76 94.5,-108 79.08,-91.58 74.94,-65.83 74.3,-46.25"/>
<polygon fill="black" stroke="black" points="77.8,-46.09 74.26,-36.11 70.8,-46.12 77.8,-46.09"/>
</g>
<!-- 3 -->
<g id="node4" class="node">
<title>3</title>
<polygon fill="none" stroke="black" points="313.5,-36 169.5,-36 169.5,0 313.5,0 313.5,-36"/>
<text text-anchor="middle" x="241.5" y="-14.3" font-family="Times,serif" font-size="14.00">coldvox&#45;telemetry</text>
</g>
<!-- 0&#45;&gt;3 -->
<g id="edge5" class="edge">
<title>0&#45;&gt;3</title>
<path fill="none" stroke="black" d="M278.43,-143.87C271.24,-119.56 258.01,-74.82 249.49,-46.01"/>
<polygon fill="black" stroke="black" points="252.78,-44.79 246.58,-36.19 246.06,-46.77 252.78,-44.79"/>
</g>
<!-- 5 -->
<g id="node6" class="node">
<title>5</title>
<polygon fill="none" stroke="black" points="425.5,-36 331.5,-36 331.5,0 425.5,0 425.5,-36"/>
<text text-anchor="middle" x="378.5" y="-14.3" font-family="Times,serif" font-size="14.00">coldvox&#45;stt</text>
</g>
<!-- 0&#45;&gt;5 -->
<g id="edge3" class="edge">
<title>0&#45;&gt;5</title>
<path fill="none" stroke="black" d="M283.52,-143.84C284.31,-124.79 287.99,-93.85 302.5,-72 310.52,-59.92 322.31,-49.78 334.23,-41.71"/>
<polygon fill="black" stroke="black" points="336.32,-44.52 342.87,-36.2 332.56,-38.62 336.32,-44.52"/>
</g>
<!-- 6 -->
<g id="node7" class="node">
<title>6</title>
<polygon fill="none" stroke="black" points="443,-108 312,-108 312,-72 443,-72 443,-108"/>
<text text-anchor="middle" x="377.5" y="-86.3" font-family="Times,serif" font-size="14.00">coldvox&#45;stt&#45;vosk</text>
</g>
<!-- 0&#45;&gt;6 -->
<g id="edge4" class="edge">
<title>0&#45;&gt;6</title>
<path fill="none" stroke="black" stroke-dasharray="1,5" d="M306.74,-143.7C318.69,-134.8 333.42,-123.82 346.35,-114.2"/>
<polygon fill="black" stroke="black" points="348.6,-116.88 354.53,-108.1 344.42,-111.27 348.6,-116.88"/>
</g>
<!-- 7 -->
<g id="node8" class="node">
<title>7</title>
<polygon fill="none" stroke="black" points="757.5,-36 657.5,-36 657.5,0 757.5,0 757.5,-36"/>
<text text-anchor="middle" x="707.5" y="-14.3" font-family="Times,serif" font-size="14.00">coldvox&#45;vad</text>
</g>
<!-- 0&#45;&gt;7 -->
<g id="edge6" class="edge">
<title>0&#45;&gt;7</title>
<path fill="none" stroke="black" d="M334.22,-145.83C337.01,-145.17 339.78,-144.55 342.5,-144 472.36,-117.57 523.24,-173.41 638.5,-108 651.92,-100.38 675.02,-68.33 690.76,-44.86"/>
<polygon fill="black" stroke="black" points="693.79,-46.63 696.4,-36.36 687.96,-42.76 693.79,-46.63"/>
</g>
<!-- 8 -->
<g id="node9" class="node">
<title>8</title>
<polygon fill="none" stroke="black" points="829.5,-108 685.5,-108 685.5,-72 829.5,-72 829.5,-108"/>
<text text-anchor="middle" x="757.5" y="-86.3" font-family="Times,serif" font-size="14.00">coldvox&#45;vad&#45;silero</text>
</g>
<!-- 0&#45;&gt;8 -->
<g id="edge7" class="edge">
<title>0&#45;&gt;8</title>
<path fill="none" stroke="black" d="M334.21,-145.79C337.01,-145.14 339.78,-144.54 342.5,-144 486.81,-115.53 526.1,-130.28 671.5,-108 672.77,-107.81 674.05,-107.61 675.34,-107.4"/>
<polygon fill="black" stroke="black" points="676.03,-110.83 685.32,-105.74 674.88,-103.93 676.03,-110.83"/>
</g>
<!-- 1&#45;&gt;2 -->
<g id="edge8" class="edge">
<title>1&#45;&gt;2</title>
<path fill="none" stroke="black" d="M139.49,-71.7C128.78,-62.88 115.61,-52.03 104,-42.47"/>
<polygon fill="black" stroke="black" points="106.21,-39.76 96.27,-36.1 101.76,-45.16 106.21,-39.76"/>
</g>
<!-- 1&#45;&gt;3 -->
<g id="edge9" class="edge">
<title>1&#45;&gt;3</title>
<path fill="none" stroke="black" d="M180.52,-71.7C190.63,-62.97 203.04,-52.24 214.02,-42.75"/>
<polygon fill="black" stroke="black" points="216.43,-45.29 221.71,-36.1 211.85,-39.99 216.43,-45.29"/>
</g>
<!-- 4 -->
<g id="node5" class="node">
<title>4</title>
<polygon fill="none" stroke="black" points="630,-108 461,-108 461,-72 630,-72 630,-108"/>
<text text-anchor="middle" x="545.5" y="-86.3" font-family="Times,serif" font-size="14.00">coldvox&#45;text&#45;injection</text>
</g>
<!-- 4&#45;&gt;5 -->
<g id="edge10" class="edge">
<title>4&#45;&gt;5</title>
<path fill="none" stroke="black" d="M504.65,-71.88C481.72,-62.26 452.92,-50.19 428.63,-40.01"/>
<polygon fill="black" stroke="black" points="429.8,-36.71 419.22,-36.07 427.09,-43.16 429.8,-36.71"/>
</g>
<!-- 6&#45;&gt;5 -->
<g id="edge11" class="edge">
<title>6&#45;&gt;5</title>
<path fill="none" stroke="black" d="M377.75,-71.7C377.86,-63.98 377.99,-54.71 378.11,-46.11"/>
<polygon fill="black" stroke="black" points="381.61,-46.15 378.26,-36.1 374.61,-46.05 381.61,-46.15"/>
</g>
<!-- 8&#45;&gt;7 -->
<g id="edge12" class="edge">
<title>8&#45;&gt;7</title>
<path fill="none" stroke="black" d="M745.14,-71.7C739.27,-63.47 732.13,-53.48 725.66,-44.42"/>
<polygon fill="black" stroke="black" points="728.38,-42.21 719.72,-36.1 722.68,-46.28 728.38,-42.21"/>
</g>
<!-- 9 -->
<g id="node10" class="node">
<title>9</title>
<polygon fill="none" stroke="black" points="449,-180 352,-180 352,-144 449,-144 449,-180"/>
<text text-anchor="middle" x="400.5" y="-158.3" font-family="Times,serif" font-size="14.00">coldvox&#45;gui</text>
</g>
</g>
</svg>
